# xmcd
#
# Track frame offsets:
#	150
#	13824
#	24919
#	38718
#	52644
#	66030
#	81764
#	94878
#	112163
#	129197
#
# Disc length: 1918 seconds
# Revision: 0
# Processed by: cddbd v1.5.2PL0 Copyright (c) Steve Scherf et al.
# Submitted via: dBpowerAMP V12.0
#
DISCID=72077c0a
DTITLE=The Clarke Family with special guest Billy Oskay - Bluegrass Christmas - Christmas Treasures Series
DYEAR=2003
DGENRE=Christmas
TTITLE0=Frosty The Snowman
TTITLE1=Christmas Shine
TTITLE2=Deck The Halls - We Wish You A Merry Christmas
TTITLE3=Go Tell It On The Mountain
TTITLE4=The Keys To Bethlehem
TTITLE5=We Three Kings
TTITLE6=O Mary, Where Is Your Baby?
TTITLE7=Hark The Herald Angels Sing
TTITLE8=Singin' In The Land
TTITLE9=Christmas Time Is Comin'
EXTD=
EXTT0=
EXTT1=
EXTT2=
EXTT3=
EXTT4=
EXTT5=
EXTT6=
EXTT7=
EXTT8=
EXTT9=
PLAYORDER=
